<svg width="250" height="250" viewBox="0 0 250 250" fill="none" xmlns="http://www.w3.org/2000/svg">
<rect width="250" height="250" fill="white"/>
<path d="M28.1898 163.541L64.1578 73.9405H85.9178L121.63 163.541H94.2378L79.9018 124.373C78.9632 121.727 78.1525 119.466 77.4698 117.589C76.7872 115.711 76.1898 113.962 75.6778 112.341C75.1658 110.634 74.6538 108.842 74.1418 106.965C73.6298 105.002 73.1178 102.698 72.6058 100.053H76.9578C76.4458 102.698 75.9338 105.002 75.4218 106.965C74.9098 108.842 74.3552 110.634 73.7578 112.341C73.2458 113.962 72.6058 115.711 71.8378 117.589C71.1552 119.466 70.3445 121.727 69.4058 124.373L55.0698 163.541H28.1898ZM46.1098 150.229L54.1738 131.413H95.7738L103.07 150.229H46.1098ZM129.365 163.541V73.9405H168.789C175.53 73.9405 181.717 75.0499 187.349 77.2685C192.981 79.4872 197.888 82.6019 202.069 86.6125C206.25 90.5379 209.45 95.2312 211.669 100.693C213.973 106.154 215.125 112.17 215.125 118.741C215.125 125.226 213.973 131.242 211.669 136.789C209.45 142.25 206.25 146.986 202.069 150.997C197.888 154.922 192.981 157.994 187.349 160.213C181.717 162.431 175.53 163.541 168.789 163.541H129.365ZM157.013 146.517L152.277 139.989H168.149C170.965 139.989 173.525 139.477 175.829 138.453C178.133 137.343 180.138 135.85 181.845 133.973C183.552 132.095 184.874 129.877 185.813 127.317C186.752 124.671 187.221 121.813 187.221 118.741C187.221 115.669 186.752 112.853 185.813 110.293C184.874 107.647 183.552 105.386 181.845 103.509C180.138 101.631 178.133 100.181 175.829 99.1565C173.525 98.0472 170.965 97.4925 168.149 97.4925H151.893L157.013 91.2205V146.517Z" fill="black"/>
</svg>
